<svg width="100%" height="100%" viewBox="0 0 300 300" fill="none"
  xmlns="http://www.w3.org/2000/svg">
  <rect width="100%" height="100%" fill="#FDF7FB"/>
  <path fill-rule="evenodd" clip-rule="evenodd" d="M70.9259 69.0878H101.444C103.746 69.0878 106.945 70.9701 108.555 73.272L120.405 90.2247V90.2078L162.463 150.325L116.315 216.037V215.969L108.558 227.066C106.949 229.368 103.749 231.25 101.447 231.25H70.9292C68.6867 231.25 68.0913 229.462 69.5504 227.242L123.573 150.169L69.5021 73.0279C68.0998 70.839 68.7056 69.0878 70.9259 69.0878ZM194.164 69.0878H224.682C226.984 69.0878 227.551 70.9701 225.943 73.272L224.095 75.914L172.046 150.169L224.048 224.357L225.943 227.066C227.551 229.368 226.984 231.25 224.682 231.25H194.164C191.862 231.25 188.663 229.368 187.053 227.066L181.129 218.591H181.075L150.387 174.893L167.642 150.325L150.387 125.661L185.192 75.914H185.206L187.053 73.272C188.663 70.9701 191.862 69.0878 194.164 69.0878Z" fill="#626262"/>
</svg>
